<svg width="156" height="121" viewBox="0 0 156 121" fill="none" xmlns="http://www.w3.org/2000/svg">
<path d="M77.5 2C101 2 98 19 105 30.5C112 42 135.528 45.0831 141.5 41.5C146.5 38.5 146 34 150 34C154 34 153.5 39 152.5 41.5C151.553 43.8672 147.5 51.3 138.5 52.5C131 53.5 121.677 52.0757 118 50.5C114.5 49 111.333 49 110.5 51.5C109 56 114.312 58.6561 118 60.5C122 62.5 127.5 64.5 131 65.5C134.5 66.5 144.469 67.8129 147 69.5C148.5 70.5 149.569 71.6466 148 74C145 78.5 134 76.5 126.5 73.5C121.565 71.526 107 60 103.5 62C99.6408 64.2053 103.366 68.4745 106.5 72C114.5 81 124 88 127 90.5C130 93 138.5 100.417 135 104.5C132 108 114.377 94.1199 110 89.5C104.789 84 96.5 69 91.5 70.5C88.4711 71.4087 89 74 90.5 79.5C92.6697 87.4556 100.5 106.5 101 110.5C101.5 114.5 100.919 117.936 99 118.5C90.5 121 82.5 79.5 82 75C81.5 70.5 79.5 70 77.5 70" stroke="#1A1A1A" stroke-width="4"/>
<path d="M77.7046 2C54.2046 2 57.2046 19 50.2046 30.5C43.2046 42 19.6763 45.0831 13.7046 41.5C8.70457 38.5 9.20457 34 5.20454 34C1.20452 34 1.70457 39 2.70454 41.5C3.65139 43.8672 7.70458 51.3 16.7046 52.5C24.2046 53.5 33.528 52.0757 37.2046 50.5C40.7046 49 43.8712 49 44.7046 51.5C46.2046 56 40.8924 58.6561 37.2046 60.5C33.2046 62.5 27.7046 64.5 24.2046 65.5C20.7046 66.5 10.7351 67.8129 8.20454 69.5C6.70457 70.5 5.63565 71.6466 7.20457 74C10.2046 78.5 21.2046 76.5 28.7046 73.5C33.6395 71.526 48.2046 60 51.7046 62C55.5638 64.2053 51.8384 68.4745 48.7046 72C40.7046 81 31.2046 88 28.2046 90.5C25.2046 93 16.7046 100.417 20.2046 104.5C23.2046 108 40.8278 94.1199 45.2046 89.5C50.4151 84 58.7046 69 63.7046 70.5C66.7335 71.4087 66.2046 74 64.7046 79.5C62.5348 87.4556 54.7046 106.5 54.2046 110.5C53.7046 114.5 54.2858 117.936 56.2046 118.5C64.7046 121 72.7046 79.5 73.2046 75C73.7046 70.5 75.7046 70 77.7046 70" stroke="#1A1A1A" stroke-width="4"/>
<path d="M19.0366 101.898C19.0589 101.821 19.0881 101.737 19.1255 101.645C19.2721 101.282 19.5236 100.843 19.8804 100.33C20.5933 99.306 21.6832 98.0508 23.0571 96.6107C25.8033 93.7322 29.6177 90.1825 33.6557 86.3636C37.6867 82.5514 41.9334 78.4778 45.5171 74.5726C49.0911 70.6779 52.0468 66.9075 53.4575 63.7015L53.6167 63.3412L53.3032 63.1019C52.4189 62.4291 51.106 62.4952 49.6753 62.8656C48.2066 63.2459 46.4294 63.9976 44.4565 64.9456C42.4794 65.8958 40.275 67.0587 37.9507 68.2718C35.6224 69.4871 33.1682 70.7552 30.6772 71.9271C25.6837 74.2762 20.5937 76.2094 16.1245 76.5501C11.8668 76.8746 8.2282 75.7553 5.73289 72.1956L13.5806 68.3216C17.3045 67.0594 21.8135 65.7007 26.2778 64.2249C31.1938 62.5999 36.0333 60.8379 39.5454 58.9398C41.299 57.992 42.7575 56.9923 43.729 55.932C44.7033 54.8685 45.2394 53.6822 44.9907 52.4046C44.8254 51.5557 44.3329 50.9564 43.6225 50.5804C42.9362 50.2172 42.0604 50.0678 41.0991 50.0433C39.1755 49.9943 36.7006 50.4456 34.1763 51.0081C31.6185 51.5781 29.0249 52.2578 26.7436 52.7113C25.6104 52.9365 24.5796 53.1009 23.7007 53.1634C22.8114 53.2267 22.1257 53.1817 21.6577 53.0257L21.604 53.0072L21.5669 53.0033L16.397 52.1654C9.40937 50.4678 6.12758 46.9565 4.645 43.5306C2.81217 39.2952 3.66582 35.055 3.97313 34.1634C4.04673 33.95 4.12345 33.8675 4.16551 33.8372C4.1968 33.8148 4.24715 33.792 4.35985 33.807C4.63505 33.8436 5.071 34.0753 5.6909 34.5609C6.90962 35.5157 8.45467 37.1279 10.2827 38.8236C12.0788 40.4896 14.1144 42.1995 16.2173 43.2191C18.2983 44.2281 20.517 44.5915 22.6421 43.4886C31.1618 42.7232 36.5232 40.4607 40.3559 38.1185C42.2723 36.9474 43.8019 35.7585 45.1284 34.7542C46.4676 33.7403 47.5751 32.9348 48.6948 32.4603L48.895 32.3753L48.9702 32.1712C54.706 16.4601 60.4112 8.94505 65.4175 5.34311C70.3987 1.75923 74.7467 2.00034 78.0005 2.00034C80.0519 2.00039 81.7682 2.43185 83.2202 3.63705C84.6843 4.8524 85.9415 6.90527 86.9585 10.2757C88.983 16.9852 89.985 28.6758 89.9985 48.5912C89.5538 48.7647 89.2437 49.165 89.0288 49.6136C88.7404 50.2159 88.5496 51.0447 88.4038 51.9945C88.1125 53.8916 87.9673 56.5196 87.6899 59.2621C87.4096 62.0341 86.9914 64.9772 86.1557 67.6224C85.3401 70.2042 84.1382 72.4561 82.3227 73.9935C81.9221 73.9621 81.6465 73.8216 81.4038 73.6126C81.0961 73.3476 80.8422 72.9772 80.4829 72.4769C79.8192 71.5528 78.9413 70.4199 77.0532 69.6712L76.6626 69.5267L76.5493 69.4974C76.2891 69.4491 76.0567 69.5451 75.8872 69.6742C75.7065 69.8117 75.5576 70.0114 75.4321 70.221C75.1772 70.6468 74.925 71.2739 74.6704 72.0384C74.1576 73.5783 73.593 75.8117 72.9712 78.4603C72.7557 79.3782 72.5324 80.3471 72.3022 81.3568L61.1128 115.976C60.2168 117.127 59.3078 117.9 58.3901 118.248C58.3496 118.264 58.3079 118.276 58.2671 118.289L54.1938 117.035C54.1575 117.011 54.0682 116.924 54.0073 116.618C53.9402 116.282 53.9317 115.793 53.9907 115.149C54.1082 113.867 54.4821 112.101 55.0376 109.991C56.147 105.777 57.9519 100.295 59.7612 94.7806C61.5671 89.2766 63.3768 83.7396 64.4839 79.4476C65.0365 77.3051 65.4214 75.4471 65.5376 74.0472C65.5954 73.3499 65.5896 72.7342 65.4897 72.2425C65.4144 71.8719 65.2698 71.5069 65.0005 71.2513V68.891L64.1684 69.6253L62.5386 71.0648C62.0337 71.2573 61.5043 71.5552 60.9575 71.931C59.5749 72.8814 57.9769 74.4006 56.23 76.2464C55.6048 76.9069 54.9589 77.6139 54.2925 78.3548L29.7739 100.031L19.0366 101.898ZM69.6001 92.971C69.2269 94.4876 68.8414 96.012 68.438 97.5199C66.9605 103.042 65.2849 108.3 63.3911 112.181L69.6001 92.971ZM49.0425 84.3314C47.4502 86.1588 45.8031 88.0413 44.1167 89.8812C39.6838 94.7174 35.0435 99.2367 30.6333 101.806C28.4313 103.089 26.3197 103.866 24.3442 103.974C22.7335 104.062 21.1961 103.706 19.7475 102.789L30.0854 100.993L30.2251 100.968L30.3315 100.874L49.0425 84.3314Z" fill="#1A1A1A" stroke="#1A1A1A"/>
<path d="M136.269 101.898C136.246 101.821 136.217 101.737 136.18 101.645C136.033 101.282 135.782 100.843 135.425 100.33C134.712 99.306 133.622 98.0508 132.248 96.6107C129.502 93.7322 125.687 90.1825 121.649 86.3636C117.618 82.5514 113.372 78.4778 109.788 74.5726C106.214 70.6779 103.258 66.9075 101.848 63.7015L101.688 63.3412L102.002 63.1019C102.886 62.4291 104.199 62.4952 105.63 62.8656C107.099 63.2459 108.876 63.9976 110.849 64.9456C112.826 65.8958 115.03 67.0587 117.354 68.2718C119.683 69.4871 122.137 70.7552 124.628 71.9271C129.621 74.2762 134.711 76.2094 139.181 76.5501C143.438 76.8746 147.077 75.7553 149.572 72.1956L141.725 68.3216C138.001 67.0594 133.492 65.7007 129.027 64.2249C124.111 62.5999 119.272 60.8379 115.76 58.9398C114.006 57.992 112.548 56.9923 111.576 55.932C110.602 54.8685 110.066 53.6822 110.314 52.4046C110.48 51.5557 110.972 50.9564 111.683 50.5804C112.369 50.2172 113.245 50.0678 114.206 50.0433C116.13 49.9943 118.605 50.4456 121.129 51.0081C123.687 51.5781 126.28 52.2578 128.562 52.7113C129.695 52.9365 130.726 53.1009 131.604 53.1634C132.494 53.2267 133.179 53.1817 133.647 53.0257L133.701 53.0072L133.738 53.0033L138.908 52.1654C145.896 50.4678 149.178 46.9565 150.66 43.5306C152.493 39.2952 151.639 35.055 151.332 34.1634C151.258 33.95 151.182 33.8675 151.14 33.8372C151.108 33.8148 151.058 33.792 150.945 33.807C150.67 33.8436 150.234 34.0753 149.614 34.5609C148.396 35.5157 146.85 37.1279 145.022 38.8236C143.226 40.4896 141.191 42.1995 139.088 43.2191C137.007 44.2281 134.788 44.5915 132.663 43.4886C124.143 42.7232 118.782 40.4607 114.949 38.1185C113.033 36.9474 111.503 35.7585 110.177 34.7542C108.837 33.7403 107.73 32.9348 106.61 32.4603L106.41 32.3753L106.335 32.1712C100.599 16.4601 94.8939 8.94505 89.8877 5.34311C84.9065 1.75923 80.5584 2.00034 77.3047 2.00034C75.2532 2.00039 73.537 2.43185 72.0849 3.63705C70.6208 4.8524 69.3637 6.90527 68.3467 10.2757C66.3222 16.9852 65.3201 28.6758 65.3066 48.5912C65.7513 48.7647 66.0615 49.165 66.2764 49.6136C66.5647 50.2159 66.7555 51.0447 66.9014 51.9945C67.1926 53.8916 67.3379 56.5196 67.6152 59.2621C67.8955 62.0341 68.3137 64.9772 69.1494 67.6224C69.9651 70.2042 71.1669 72.4561 72.9824 73.9935C73.3831 73.9621 73.6587 73.8216 73.9014 73.6126C74.209 73.3476 74.463 72.9772 74.8223 72.4769C75.4859 71.5528 76.3638 70.4199 78.2519 69.6712L78.6426 69.5267L78.7558 69.4974C79.016 69.4491 79.2484 69.5451 79.418 69.6742C79.5986 69.8117 79.7475 70.0114 79.873 70.221C80.1279 70.6468 80.3802 71.2739 80.6348 72.0384C81.1475 73.5783 81.7121 75.8117 82.334 78.4603C82.5495 79.3782 82.7727 80.3471 83.0029 81.3568L94.1924 115.976C95.0884 117.127 95.9974 117.9 96.915 118.248C96.9555 118.264 96.9973 118.276 97.0381 118.289L101.111 117.035C101.148 117.011 101.237 116.924 101.298 116.618C101.365 116.282 101.373 115.793 101.314 115.149C101.197 113.867 100.823 112.101 100.268 109.991C99.1582 105.777 97.3533 100.295 95.5439 94.7806C93.7381 89.2766 91.9283 83.7396 90.8213 79.4476C90.2686 77.3051 89.8837 75.4471 89.7676 74.0472C89.7097 73.3499 89.7155 72.7342 89.8154 72.2425C89.8908 71.8719 90.0354 71.5069 90.3047 71.2513V68.891L91.1367 69.6253L92.7666 71.0648C93.2714 71.2573 93.8009 71.5552 94.3476 71.931C95.7303 72.8814 97.3282 74.4006 99.0752 76.2464C99.7003 76.9069 100.346 77.6139 101.013 78.3548L125.531 100.031L136.269 101.898ZM85.7051 92.971C86.0782 94.4876 86.4637 96.012 86.8672 97.5199C88.3447 103.042 90.0202 108.3 91.914 112.181L85.7051 92.971ZM106.263 84.3314C107.855 86.1588 109.502 88.0413 111.188 89.8812C115.621 94.7174 120.262 99.2367 124.672 101.806C126.874 103.089 128.985 103.866 130.961 103.974C132.572 104.062 134.109 103.706 135.558 102.789L125.22 100.993L125.08 100.968L124.974 100.874L106.263 84.3314Z" fill="#1A1A1A" stroke="#1A1A1A"/>
</svg>
